<svg id="圖層_1" data-name="圖層 1" xmlns="http://www.w3.org/2000/svg" viewBox="0 0 261 138"><defs><style>.cls-1{fill:#e6e6e6;}.cls-2,.cls-3{fill:#1b149b;}.cls-3{font-size:28px;font-family:KozGoPr6N-Regular-90ms-RKSJ-H, Kozuka Gothic Pr6N;}</style></defs><title>WEB1-1</title><rect class="cls-1" x="-0.17" width="261" height="138"/><path class="cls-2" d="M176.19,47.62a3.07,3.07,0,1,1-3.07,3.07,3.07,3.07,0,0,1,3.07-3.07ZM162.7,77.34c2,3.33,4.44,7.26,4.44,7.26l6-.1v3.88H85.69V84.5h5.16l1.54,0s2.42-5,4.68-8.46a39.89,39.89,0,0,1,32.27-16.79c13.71,0,26.8,8.33,33.36,18.11Zm5.21,1.5A3.16,3.16,0,0,1,171,81.23h-2.55c-.35-.77-.7-1.55-1.09-2.29a2.82,2.82,0,0,1,.58-.1Zm-78,0a3.15,3.15,0,0,1,1.3.31c-.35.68-.69,1.38-1,2.08H86.89A3.16,3.16,0,0,1,90,78.84Zm37.7-41.64a3.07,3.07,0,1,1,3.06,3.07,3.06,3.06,0,0,1-3.06-3.07Zm-43.45,8a3.07,3.07,0,1,1,3.06-3.06,3.07,3.07,0,0,1-3.06,3.06ZM107,27.4a3.07,3.07,0,1,1,3.06-3.06A3.07,3.07,0,0,1,107,27.4Zm52.21-6.13a3.07,3.07,0,1,1-3.06,3.06,3.06,3.06,0,0,1,3.06-3.06Zm17,35.75a6.38,6.38,0,1,0-5-2.48L159.12,68a43.13,43.13,0,0,0-11.74-8.06l12-29.28a6.39,6.39,0,1,0-3.2-.82l-11.8,28.85A42.63,42.63,0,0,0,132,56.07l-.55-12.61a6.28,6.28,0,1,0-3.26-.43l.48,13a42.46,42.46,0,0,0-12.11,1.9l-7-27.81a6.35,6.35,0,1,0-3.24.52L113.45,59a42.76,42.76,0,0,0-9.14,5L89.43,45.74a6.5,6.5,0,1,0-2.49,2.12L101.73,66a43.2,43.2,0,0,0-8.8,10.17,6.37,6.37,0,0,0-3-.76A6.57,6.57,0,0,0,83.38,82h.2a3.24,3.24,0,0,0-1.16,2.48v3.88a3.27,3.27,0,0,0,3.27,3.27h87.43a3.28,3.28,0,0,0,3.27-3.27V84.5a3.24,3.24,0,0,0-2-3,6.55,6.55,0,0,0-6.52-6.06,6.4,6.4,0,0,0-2.32.47,42.43,42.43,0,0,0-4.2-5.56l12.4-13.81a6.43,6.43,0,0,0,2.41.47Z"/><text class="cls-3" transform="translate(46.19 126.8)">線上縫紉教室</text></svg>